<svg xmlns="http://www.w3.org/2000/svg" viewBox="0 0 48 48" fill="none">
  <rect width="48" height="48" rx="10" fill="#E84010"/>
  <line x1="28" y1="10" x2="25" y2="4" stroke="#FFD700" stroke-width="2" stroke-linecap="round"/>
  <line x1="30" y1="9" x2="28" y2="3" stroke="#FFD700" stroke-width="2" stroke-linecap="round"/>
  <line x1="32" y1="9" x2="32" y2="3" stroke="#FFD700" stroke-width="2" stroke-linecap="round"/>
  <line x1="34" y1="10" x2="35" y2="4" stroke="#FFD700" stroke-width="2" stroke-linecap="round"/>
  <circle cx="31" cy="14" r="4" fill="white"/>
  <circle cx="33" cy="15" r="1.6" fill="#CC2200" opacity="0.85"/>
  <path d="M34 13 L43 13.5 L34 15.2 Z" fill="white"/>
  <path d="M28 17.5 C25 21 22 24.5 20 27.5" stroke="white" stroke-width="4" stroke-linecap="round" fill="none"/>
  <ellipse cx="16" cy="31" rx="8.5" ry="6" fill="white" transform="rotate(-15 16 31)"/>
  <path d="M10 28 C7 23 7 18 11 14 C14 20 16 24.5 19 27" fill="rgba(220,220,220,0.9)"/>
  <path d="M9 35 Q4 37 3 41" stroke="white" stroke-width="2.5" stroke-linecap="round" fill="none"/>
  <path d="M10 33.5 Q5 35 3 38" stroke="white" stroke-width="2" stroke-linecap="round" opacity="0.75" fill="none"/>
  <line x1="17" y1="36.5" x2="14" y2="44" stroke="white" stroke-width="1.8" stroke-linecap="round"/>
  <line x1="14" y1="44" x2="9" y2="46" stroke="white" stroke-width="1.5" stroke-linecap="round"/>
  <line x1="14" y1="44" x2="15" y2="47" stroke="white" stroke-width="1.5" stroke-linecap="round"/>
</svg>
